<?xml version="1.0" standalone="no"?>
<!DOCTYPE svg PUBLIC "-//W3C//DTD SVG 20010904//EN"
 "http://www.w3.org/TR/2001/REC-SVG-20010904/DTD/svg10.dtd">
<svg version="1.0" xmlns="http://www.w3.org/2000/svg"
 width="260.000000pt" height="260.000000pt" viewBox="0 0 260.000000 260.000000"
 preserveAspectRatio="xMidYMid meet">
<metadata>
Created by potrace 1.14, written by Peter Selinger 2001-2017
</metadata>
<g transform="translate(0.000000,260.000000) scale(0.100000,-0.100000)"
fill="#000000" stroke="none">
<path d="M1515 2539 c-312 -25 -552 -127 -841 -360 -89 -71 -121 -112 -187
-239 -145 -280 -311 -840 -323 -1085 -7 -152 32 -258 136 -363 94 -96 211
-164 386 -225 155 -54 250 -73 489 -101 17 -2 51 -16 77 -31 52 -29 43 -30
133 19 17 9 46 16 66 16 72 0 282 44 414 87 306 99 510 265 561 456 13 50 13
258 0 318 -3 13 -8 47 -11 74 -12 93 -14 105 -30 172 -64 271 -183 558 -329
791 -84 132 -215 306 -305 403 -79 86 -64 81 -236 68z"/>
</g>
</svg>
